<svg id="Layer_1" data-name="Layer 1" xmlns="http://www.w3.org/2000/svg" xmlns:xlink="http://www.w3.org/1999/xlink" viewBox="0 0 191.83 55.2"><defs><style>.cls-1{fill:#60c195;}.cls-2{fill:url(#linear-gradient);}.cls-3{fill:url(#linear-gradient-2);}.cls-4{fill:url(#linear-gradient-3);}.cls-5{fill:url(#linear-gradient-4);}.cls-6{fill:url(#linear-gradient-5);}</style><linearGradient id="linear-gradient" x1="27.23" y1="44.91" x2="27.23" y2="21.49" gradientUnits="userSpaceOnUse"><stop offset="0.24" stop-color="#ff6161"/><stop offset="0.46" stop-color="#ff8b51"/><stop offset="0.69" stop-color="#ffaf42"/><stop offset="0.88" stop-color="#ffc639"/><stop offset="1" stop-color="#ffce36"/></linearGradient><linearGradient id="linear-gradient-2" x1="9.78" y1="40.15" x2="9.78" y2="23.58" xlink:href="#linear-gradient"/><linearGradient id="linear-gradient-3" x1="15.59" y1="44.91" x2="15.59" y2="21.49" xlink:href="#linear-gradient"/><linearGradient id="linear-gradient-4" x1="33.04" y1="40.15" x2="33.04" y2="23.58" xlink:href="#linear-gradient"/><linearGradient id="linear-gradient-5" x1="21.41" y1="46.5" x2="21.41" y2="24.34" xlink:href="#linear-gradient"/></defs><path d="M47.74,34.83v6H46.4V23.44H54c7.56,0,7.56,11.39,0,11.39Zm0-10.15v8.93H54c5.79,0,5.79-8.93,0-8.93Z"/><path d="M61.71,34.7A6.18,6.18,0,0,1,68,28.36c3.46,0,6.54,2.12,6.07,6.91H63a4.83,4.83,0,0,0,5,4.55A5.77,5.77,0,0,0,72.38,38l.87.7A6.78,6.78,0,0,1,68,41,6,6,0,0,1,61.71,34.7Zm11.21-.5c0-3-2-4.72-5-4.72a4.92,4.92,0,0,0-5,4.72Z"/><path d="M89.48,28.56V40.84H88.26V38.23a5.72,5.72,0,0,1-5,2.81A6.14,6.14,0,0,1,77,34.7a6.11,6.11,0,0,1,6.24-6.29,5.56,5.56,0,0,1,5,2.84V28.56ZM78.22,34.7a4.93,4.93,0,0,0,5,5.15c6.84,0,6.84-10.27,0-10.27A4.91,4.91,0,0,0,78.22,34.7Z"/><path d="M103.63,39.13A6.31,6.31,0,0,1,99.15,41a6.05,6.05,0,0,1-6.31-6.27,6,6,0,0,1,6.31-6.26,6.4,6.4,0,0,1,4.48,1.84l-.8.77a5.18,5.18,0,0,0-3.68-1.47A4.87,4.87,0,0,0,94,34.7a4.86,4.86,0,0,0,5.12,5.12,5.19,5.19,0,0,0,3.65-1.51Z"/><path d="M107.78,23.44v7.41a4.89,4.89,0,0,1,4.42-2.46c3.43,0,5.15,2.21,5.15,5.42v7h-1.19v-7c0-2.54-1.2-4.25-4-4.25a4.33,4.33,0,0,0-4.37,4.55v6.73h-1.22V23.44Z"/><path d="M129.45,30.8a5.21,5.21,0,0,0-3.82-1.29c-1.92,0-3.76.69-3.71,2.26s2.19,2,3.73,2.24c2.19.37,5.2.74,5.07,3.6s-2.88,3.43-5,3.43a6.31,6.31,0,0,1-5.37-2.46l.89-.79a5.46,5.46,0,0,0,4.5,2.08c1.49,0,3.75-.39,3.83-2.33.05-1.77-2-2.12-4-2.44-2.39-.4-4.75-.85-4.78-3.31s2.39-3.45,4.88-3.43A6.44,6.44,0,0,1,130.2,30Z"/><path d="M144,39.13A6.31,6.31,0,0,1,139.52,41a6.06,6.06,0,0,1-6.31-6.27,6,6,0,0,1,6.31-6.26A6.4,6.4,0,0,1,144,30.28l-.8.77a5.18,5.18,0,0,0-3.68-1.47,4.87,4.87,0,0,0-5.12,5.12,4.86,4.86,0,0,0,5.12,5.12,5.23,5.23,0,0,0,3.66-1.51Z"/><path d="M146.66,34.73a6.24,6.24,0,1,1,12.48,0,6.24,6.24,0,1,1-12.48,0Zm11.28,0a5,5,0,1,0-10.09,0,5,5,0,1,0,10.09,0Z"/><path d="M163.59,28.56l0,2.19a4.31,4.31,0,0,1,4.07-2.31,4.74,4.74,0,0,1,2.64.72l-.55,1a3.92,3.92,0,0,0-2.09-.57,4.09,4.09,0,0,0-4.05,4.1v7.16h-1.22V28.56Z"/><path d="M172,34.7a6.17,6.17,0,0,1,6.24-6.34c3.46,0,6.54,2.12,6.07,6.91H173.23a4.83,4.83,0,0,0,5,4.55A5.77,5.77,0,0,0,182.66,38l.87.7a6.79,6.79,0,0,1-5.3,2.36A6,6,0,0,1,172,34.7Zm11.21-.5c0-3-2-4.72-5-4.72a4.92,4.92,0,0,0-5,4.72Z"/><path class="cls-1" d="M19.38,14v10h1.36a2.7,2.7,0,0,0,2.7-2.7v-10H22.08A2.7,2.7,0,0,0,19.38,14Z"/><path class="cls-1" d="M27.9,8.66a2.7,2.7,0,0,0-2.7,2.7v10h1.36a2.7,2.7,0,0,0,2.7-2.7v-10Z"/><path class="cls-2" d="M27.91,22.51H26.55a1.35,1.35,0,0,0-1.35,1.35V45h1.36a2.7,2.7,0,0,0,2.7-2.7V23.86A1.35,1.35,0,0,0,27.91,22.51Z"/><path class="cls-3" d="M7.75,27V37.48a2.7,2.7,0,0,0,2.7,2.7H11.8V24.3H10.45A2.7,2.7,0,0,0,7.75,27Z"/><path class="cls-4" d="M16.27,22.51H14.92a1.34,1.34,0,0,0-1.35,1.35V42.25A2.69,2.69,0,0,0,16.26,45h1.36V23.86A1.35,1.35,0,0,0,16.27,22.51Z"/><path class="cls-5" d="M32.37,24.3H31V40.18h1.35a2.7,2.7,0,0,0,2.7-2.7V27A2.7,2.7,0,0,0,32.37,24.3Z"/><path class="cls-6" d="M20.74,25.31a1.35,1.35,0,0,0-1.36,1.35V44.52a2,2,0,0,0,2.39,2,2.1,2.1,0,0,0,1.67-2.11V26.66a1.35,1.35,0,0,0-1.36-1.35Z"/></svg>