<svg width="160" height="48" viewBox="0 0 160 48" fill="none" xmlns="http://www.w3.org/2000/svg">
<g clip-path="url(#clip0_18064_221556)">
<path d="M14.76 6.81333V19.5333H16.48C17.3853 19.5333 18.2535 19.1737 18.8936 18.5336C19.5337 17.8935 19.8933 17.0253 19.8933 16.12V3.39999H18.1733C17.2681 3.39999 16.3999 3.75961 15.7598 4.39974C15.1196 5.03986 14.76 5.90806 14.76 6.81333Z" fill="#60C195"/>
<path d="M25.5466 0C24.6414 0 23.7732 0.359618 23.133 0.999742C22.4929 1.63987 22.1333 2.50806 22.1333 3.41333V16.1333H23.8533C24.7598 16.1333 25.6294 15.7741 26.2716 15.1344C26.9139 14.4947 27.2764 13.6265 27.28 12.72V0H25.5466Z" fill="#60C195"/>
<path d="M31.2267 19.8H29.5067V40H31.2267C31.6828 40.0037 32.1351 39.9158 32.5567 39.7417C32.9783 39.5676 33.3608 39.3108 33.6815 38.9864C34.0022 38.662 34.2546 38.2766 34.4238 37.8529C34.593 37.4293 34.6756 36.9761 34.6667 36.52V23.1867C34.6632 22.7384 34.5714 22.2952 34.3967 21.8825C34.2219 21.4697 33.9675 21.0953 33.6481 20.7809C33.3286 20.4664 32.9504 20.2179 32.5349 20.0496C32.1195 19.8813 31.6749 19.7965 31.2267 19.8Z" fill="url(#paint0_linear_18064_221556)"/>
<path d="M-9.73887e-06 23.2133V36.5467C-0.00530229 36.9983 0.0790786 37.4464 0.248244 37.8652C0.417409 38.2839 0.667994 38.6649 0.98548 38.9861C1.30297 39.3073 1.68104 39.5624 2.09779 39.7364C2.51455 39.9104 2.96169 40 3.41332 40H5.13332V19.8H3.41332C2.50805 19.8 1.63986 20.1596 0.999733 20.7997C0.359608 21.4399 -9.73887e-06 22.308 -9.73887e-06 23.2133Z" fill="url(#paint1_linear_18064_221556)"/>
<path d="M10.7734 17.56H9.12002C8.65677 17.56 8.2125 17.744 7.88494 18.0716C7.55738 18.3992 7.37335 18.8434 7.37335 19.3067V42.6667C7.37335 43.5732 7.73254 44.4427 8.37228 45.085C9.01202 45.7272 9.88019 46.0898 10.7867 46.0933H12.52V19.4267C12.5365 19.1874 12.5035 18.9473 12.4232 18.7213C12.3428 18.4954 12.2167 18.2884 12.0529 18.1133C11.889 17.9381 11.6908 17.7986 11.4707 17.7035C11.2506 17.6083 11.0132 17.5594 10.7734 17.56Z" fill="url(#paint2_linear_18064_221556)"/>
<path d="M25.5333 17.56H23.88C23.4167 17.56 22.9725 17.744 22.6449 18.0716C22.3173 18.3991 22.1333 18.8434 22.1333 19.3067V45.9733H23.8533C24.7417 45.9739 25.5956 45.6294 26.2349 45.0125C26.8741 44.3956 27.2489 43.5545 27.28 42.6667V19.3067C27.28 19.0773 27.2348 18.8502 27.147 18.6382C27.0592 18.4263 26.9306 18.2338 26.7684 18.0716C26.6062 17.9094 26.4136 17.7807 26.2017 17.693C25.9898 17.6052 25.7627 17.56 25.5333 17.56Z" fill="url(#paint3_linear_18064_221556)"/>
<path d="M18.24 21.0667H16.4C15.9729 21.0699 15.5636 21.2383 15.2579 21.5365C14.9522 21.8348 14.7738 22.2398 14.76 22.6667V45.5067C14.76 46.1679 15.0227 46.8021 15.4903 47.2697C15.9579 47.7373 16.5921 48 17.2533 48C17.9606 48 18.6389 47.7191 19.139 47.219C19.6391 46.7189 19.92 46.0406 19.92 45.3333V22.6667C19.9061 22.2328 19.7221 21.8219 19.4078 21.5225C19.0934 21.2232 18.674 21.0594 18.24 21.0667Z" fill="url(#paint4_linear_18064_221556)"/>
<path d="M47.3867 21.9067H40.32V37.9067H42.5467V32.7067H47.3867C48.1359 32.7286 48.8811 32.5887 49.5714 32.2964C50.2617 32.0042 50.8809 31.5666 51.3867 31.0133C52.2675 29.9813 52.7416 28.6633 52.72 27.3067C52.7457 26.5963 52.6258 25.8882 52.3677 25.2258C52.1096 24.5635 51.7188 23.9609 51.2193 23.4551C50.7198 22.9494 50.1221 22.5511 49.463 22.2848C48.8039 22.0185 48.0973 21.8898 47.3867 21.9067ZM42.5467 24H47.3867C47.8152 23.9901 48.2412 24.0691 48.6378 24.2318C49.0343 24.3946 49.3929 24.6376 49.691 24.9457C49.989 25.2538 50.2201 25.6202 50.3697 26.022C50.5192 26.4237 50.584 26.852 50.56 27.28C50.577 28.1076 50.2927 28.9131 49.76 29.5467C49.4647 29.8815 49.0985 30.1463 48.6879 30.3216C48.2773 30.4969 47.8327 30.5783 47.3867 30.56H42.5467V24Z" fill="black" fill-opacity="0.9"/>
<path d="M59.28 26.1066C58.4986 26.0955 57.723 26.2427 57 26.5395C56.277 26.8363 55.6217 27.2764 55.0734 27.8333C54.5252 28.3903 54.0955 29.0525 53.8102 29.7801C53.5248 30.5077 53.3899 31.2855 53.4134 32.0666C53.3819 32.8486 53.5117 33.6286 53.7945 34.3582C54.0774 35.0879 54.5072 35.7516 55.0575 36.308C55.6077 36.8645 56.2665 37.3019 56.9929 37.5929C57.7193 37.884 58.4978 38.0225 59.28 38C60.219 38.0251 61.1515 37.8378 62.008 37.4523C62.8645 37.0668 63.6229 36.4928 64.2267 35.7733L64.5467 35.3466L62.96 34.0133L62.6267 34.4533C62.195 34.8998 61.6735 35.2495 61.0965 35.4794C60.5196 35.7092 59.9004 35.814 59.28 35.7866C58.4387 35.8167 57.6133 35.5521 56.9463 35.0385C56.2793 34.5248 55.8125 33.7944 55.6267 32.9733H64.96V32.4933C65.0847 31.6549 65.0304 30.7996 64.8005 29.9838C64.5707 29.1679 64.1707 28.41 63.6267 27.76C63.0554 27.1994 62.3744 26.7631 61.6263 26.4786C60.8782 26.1941 60.0794 26.0674 59.28 26.1066ZM55.64 31.1066C55.7927 30.2596 56.2438 29.4953 56.9116 28.9523C57.5794 28.4092 58.4196 28.1234 59.28 28.1466C59.7176 28.0892 60.1624 28.121 60.5873 28.2402C61.0123 28.3594 61.4088 28.5634 61.7527 28.8401C62.0966 29.1167 62.3809 29.4602 62.5884 29.8497C62.7959 30.2393 62.9223 30.6669 62.96 31.1066H55.64Z" fill="black" fill-opacity="0.9"/>
<path d="M76.1067 27.56C75.072 26.6405 73.7308 26.1411 72.3467 26.16C71.5683 26.1434 70.7947 26.2852 70.0728 26.5767C69.3509 26.8682 68.6958 27.3033 68.1471 27.8557C67.5985 28.4081 67.1678 29.0661 66.8813 29.79C66.5947 30.5139 66.4582 31.2884 66.48 32.0667C66.4565 32.8478 66.5915 33.6256 66.8768 34.3532C67.1622 35.0808 67.5919 35.743 68.1401 36.3C68.6884 36.8569 69.3437 37.297 70.0667 37.5938C70.7897 37.8906 71.5653 38.0378 72.3467 38.0267C73.7381 38.0452 75.0837 37.5299 76.1067 36.5867V37.8533H78.2134V26.28H76.1067V27.56ZM72.3467 35.92C71.8418 35.9315 71.3399 35.839 70.8723 35.6482C70.4047 35.4575 69.9814 35.1725 69.6287 34.811C69.276 34.4496 69.0015 34.0194 68.8222 33.5472C68.6429 33.0751 68.5628 32.5711 68.5867 32.0667C68.5867 31.0588 68.9871 30.0923 69.6997 29.3797C70.4123 28.667 71.3789 28.2667 72.3867 28.2667C73.3945 28.2667 74.3611 28.667 75.0737 29.3797C75.7863 30.0923 76.1867 31.0588 76.1867 32.0667C76.2029 33.0429 75.8614 33.9914 75.2267 34.7333C74.8626 35.1297 74.416 35.4414 73.9184 35.6464C73.4208 35.8514 72.8843 35.9448 72.3467 35.92Z" fill="black" fill-opacity="0.9"/>
<path d="M88.7066 29.3333L89.08 29.7066L90.5333 28.3066L90.1466 27.92C89.0313 26.809 87.5209 26.1857 85.9466 26.1866C85.1605 26.1451 84.3743 26.2683 83.6384 26.5482C82.9026 26.8281 82.2334 27.2586 81.6735 27.8121C81.1137 28.3657 80.6757 29.03 80.3875 29.7627C80.0993 30.4953 79.9673 31.28 80 32.0666C79.9757 32.8506 80.1128 33.6311 80.4029 34.3598C80.693 35.0884 81.1298 35.7497 81.6863 36.3024C82.2427 36.8551 82.9069 37.2874 83.6375 37.5726C84.3681 37.8577 85.1496 37.9896 85.9333 37.96C86.7132 37.9634 87.4861 37.8119 88.2071 37.5143C88.928 37.2168 89.5828 36.7791 90.1333 36.2266L90.52 35.8533L89.0533 34.3866L88.6666 34.7733C88.1388 35.327 87.4566 35.7092 86.7087 35.8701C85.9608 36.0311 85.1819 35.9634 84.473 35.6758C83.7641 35.3882 83.1581 34.894 82.7337 34.2575C82.3093 33.621 82.0862 32.8716 82.0933 32.1066C82.1066 28 86.76 27.3733 88.7066 29.3333Z" fill="black" fill-opacity="0.9"/>
<path d="M97.0933 26.1333C95.9102 26.1112 94.7591 26.5186 93.8533 27.28V21.9467H91.7733V37.9467H93.8933V31.56C93.8676 31.1262 93.9316 30.6917 94.0814 30.2838C94.2312 29.8759 94.4635 29.5032 94.7638 29.1891C95.0642 28.8751 95.426 28.6263 95.8268 28.4584C96.2277 28.2905 96.6588 28.2071 97.0933 28.2133C98.9866 28.2133 99.9333 29.2533 99.9333 31.3067V37.8533H102.027V31.3067C102.027 28.0667 100.187 26.1333 97.0933 26.1333Z" fill="black" fill-opacity="0.9"/>
<path d="M108.933 30.9867H108.56C107.147 30.7333 105.973 30.4667 105.893 29.6533C105.885 29.5234 105.905 29.3932 105.951 29.2714C105.997 29.1495 106.068 29.0389 106.16 28.9467C106.813 28.4517 107.623 28.2101 108.44 28.2667C108.98 28.2217 109.523 28.2846 110.038 28.4517C110.553 28.6188 111.03 28.8868 111.44 29.24L111.827 29.5867L113.16 28.1333L112.76 27.7733C111.6 26.7092 110.066 26.1482 108.493 26.2133C107.096 26.1671 105.732 26.6424 104.667 27.5467C104.38 27.8353 104.154 28.1789 104.002 28.557C103.851 28.935 103.778 29.3396 103.787 29.7467C103.787 32.3467 106.453 32.7733 108.32 33.0933C110.187 33.4133 111.32 33.6533 111.293 34.6267C111.293 35.96 109.36 36.1067 108.627 36.1067C107.976 36.1403 107.326 36.0175 106.732 35.7484C106.138 35.4793 105.617 35.0718 105.213 34.56L104.867 34.0533L103.307 35.3867L103.56 35.7733C104.141 36.5499 104.906 37.1705 105.785 37.5799C106.664 37.9894 107.631 38.1749 108.6 38.12C110.893 38.12 113.373 37.2 113.453 34.6667C113.587 31.76 110.787 31.2933 108.933 30.9867Z" fill="black" fill-opacity="0.9"/>
<path d="M123.213 29.3333L123.587 29.7067L125.04 28.3067L124.64 27.92C123.525 26.8091 122.014 26.1857 120.44 26.1867C119.655 26.1488 118.87 26.2752 118.137 26.5576C117.403 26.84 116.737 27.2723 116.179 27.8269C115.622 28.3815 115.187 29.0462 114.901 29.7785C114.616 30.5108 114.486 31.2947 114.52 32.08C114.496 32.8627 114.633 33.6421 114.922 34.3699C115.211 35.0976 115.647 35.7582 116.202 36.3107C116.757 36.8632 117.419 37.2958 118.148 37.5818C118.877 37.8678 119.657 38.0011 120.44 37.9733C121.222 37.9777 121.997 37.8268 122.72 37.5292C123.444 37.2317 124.101 36.7935 124.653 36.24L125.027 35.8667L123.573 34.4L123.187 34.7867C122.659 35.3404 121.977 35.7226 121.229 35.8835C120.481 36.0444 119.702 35.9767 118.993 35.6891C118.284 35.4016 117.678 34.9074 117.254 34.2709C116.829 33.6344 116.606 32.885 116.613 32.12C116.613 28 121.333 27.3733 123.213 29.3333Z" fill="black" fill-opacity="0.9"/>
<path d="M131.88 26.0933C131.093 26.0741 130.31 26.2173 129.581 26.5138C128.852 26.8103 128.191 27.2538 127.641 27.8167C127.091 28.3796 126.662 29.0498 126.382 29.7856C126.102 30.5213 125.977 31.3069 126.013 32.0933C126.013 33.6493 126.631 35.1415 127.732 36.2417C128.832 37.3419 130.324 37.96 131.88 37.96C133.436 37.96 134.928 37.3419 136.028 36.2417C137.129 35.1415 137.747 33.6493 137.747 32.0933C137.784 31.3069 137.658 30.5213 137.378 29.7856C137.098 29.0498 136.669 28.3796 136.119 27.8167C135.569 27.2538 134.908 26.8103 134.179 26.5138C133.45 26.2173 132.667 26.0741 131.88 26.0933ZM131.88 28.1466C132.397 28.1398 132.91 28.2403 133.386 28.442C133.862 28.6436 134.291 28.9418 134.645 29.3179C135 29.6939 135.273 30.1395 135.446 30.6264C135.62 31.1134 135.69 31.631 135.653 32.1466C135.653 33.1474 135.256 34.1072 134.548 34.8148C133.841 35.5224 132.881 35.92 131.88 35.92C130.879 35.92 129.92 35.5224 129.212 34.8148C128.504 34.1072 128.107 33.1474 128.107 32.1466C128.07 31.631 128.14 31.1134 128.314 30.6264C128.487 30.1395 128.76 29.6939 129.115 29.3179C129.47 28.9418 129.898 28.6436 130.374 28.442C130.85 28.2403 131.363 28.1398 131.88 28.1466Z" fill="black" fill-opacity="0.9"/>
<path d="M144.667 26.1733C143.545 26.1243 142.443 26.4791 141.56 27.1733V26.28H139.52V37.8533H141.64V31.1867C141.635 30.7992 141.706 30.4146 141.85 30.0549C141.995 29.6953 142.209 29.3678 142.48 29.0913C142.752 28.8149 143.075 28.5949 143.432 28.4442C143.789 28.2935 144.173 28.2151 144.56 28.2133C145.092 28.2024 145.615 28.3459 146.067 28.6267L146.547 28.92L147.533 27.12L147.093 26.8533C146.362 26.4084 145.523 26.1732 144.667 26.1733Z" fill="black" fill-opacity="0.9"/>
<path d="M157.933 27.88C157.097 27.0379 156.03 26.462 154.867 26.225C153.705 25.988 152.497 26.1004 151.398 26.548C150.299 26.9956 149.357 27.7585 148.691 28.7406C148.024 29.7226 147.663 30.8799 147.653 32.0666C147.622 32.8486 147.752 33.6286 148.035 34.3582C148.317 35.0879 148.747 35.7516 149.297 36.308C149.848 36.8645 150.506 37.3019 151.233 37.5929C151.959 37.884 152.738 38.0225 153.52 38C154.461 38.0242 155.395 37.8366 156.253 37.4512C157.112 37.0658 157.873 36.4924 158.48 35.7733L158.8 35.3466L157.213 34.0133L156.88 34.4533C156.446 34.9008 155.922 35.2511 155.343 35.481C154.764 35.7108 154.143 35.815 153.52 35.7866C152.68 35.8188 151.855 35.5547 151.19 35.0404C150.524 34.5262 150.061 33.7946 149.88 32.9733H159.213V32.4933C159.335 31.6776 159.283 30.8455 159.063 30.0508C158.842 29.2561 158.458 28.5166 157.933 27.88ZM149.933 31.1066C150.089 30.2608 150.54 29.4981 151.208 28.9555C151.875 28.413 152.714 28.1262 153.573 28.1466C154.011 28.0892 154.456 28.121 154.881 28.2402C155.306 28.3594 155.702 28.5634 156.046 28.8401C156.39 29.1167 156.674 29.4602 156.882 29.8497C157.089 30.2393 157.216 30.6669 157.253 31.1066H149.933Z" fill="black" fill-opacity="0.9"/>
</g>
<defs>
<linearGradient id="paint0_linear_18064_221556" x1="32.08" y1="39.6267" x2="32.08" y2="20.2133" gradientUnits="userSpaceOnUse">
<stop offset="0.24" stop-color="#FF6161"/>
<stop offset="0.46" stop-color="#FF8B51"/>
<stop offset="0.69" stop-color="#FFAF42"/>
<stop offset="0.88" stop-color="#FFC639"/>
<stop offset="1" stop-color="#FFCE36"/>
</linearGradient>
<linearGradient id="paint1_linear_18064_221556" x1="2.55958" y1="39.6265" x2="2.55958" y2="20.2134" gradientUnits="userSpaceOnUse">
<stop offset="0.24" stop-color="#FF6161"/>
<stop offset="0.46" stop-color="#FF8B51"/>
<stop offset="0.69" stop-color="#FFAF42"/>
<stop offset="0.88" stop-color="#FFC639"/>
<stop offset="1" stop-color="#FFCE36"/>
</linearGradient>
<linearGradient id="paint2_linear_18064_221556" x1="9.94177" y1="45.5658" x2="9.94177" y2="18.144" gradientUnits="userSpaceOnUse">
<stop offset="0.24" stop-color="#FF6161"/>
<stop offset="0.46" stop-color="#FF8B51"/>
<stop offset="0.69" stop-color="#FFAF42"/>
<stop offset="0.88" stop-color="#FFC639"/>
<stop offset="1" stop-color="#FFCE36"/>
</linearGradient>
<linearGradient id="paint3_linear_18064_221556" x1="24.6997" y1="45.4481" x2="24.6997" y2="18.1415" gradientUnits="userSpaceOnUse">
<stop offset="0.24" stop-color="#FF6161"/>
<stop offset="0.46" stop-color="#FF8B51"/>
<stop offset="0.69" stop-color="#FFAF42"/>
<stop offset="0.88" stop-color="#FFC639"/>
<stop offset="1" stop-color="#FFCE36"/>
</linearGradient>
<linearGradient id="paint4_linear_18064_221556" x1="17.333" y1="47.5021" x2="17.333" y2="21.6177" gradientUnits="userSpaceOnUse">
<stop offset="0.24" stop-color="#FF6161"/>
<stop offset="0.46" stop-color="#FF8B51"/>
<stop offset="0.69" stop-color="#FFAF42"/>
<stop offset="0.88" stop-color="#FFC639"/>
<stop offset="1" stop-color="#FFCE36"/>
</linearGradient>
<clipPath id="clip0_18064_221556">
<rect width="159.293" height="48" fill="white"/>
</clipPath>
</defs>
</svg>
