<svg width="311" height="56" viewBox="0 0 311 56" fill="none" xmlns="http://www.w3.org/2000/svg">
<path fill-rule="evenodd" clip-rule="evenodd" d="M308.052 48.4817C306.879 49.8297 304.377 49.3231 303.532 48.4817C302.688 47.6402 304.777 42.4658 304.777 42.4658C302.942 42.162 301.698 41.0685 301.698 39.1846C301.698 33.5947 311 33.8375 311 39.3668C311 40.096 309.226 47.1336 308.052 48.4817Z" fill="white"/>
<path fill-rule="evenodd" clip-rule="evenodd" d="M300.458 16.5349L282.521 53.5664C281.801 55.0513 280.262 56 278.569 56H278.479C275.281 56 273.169 52.7757 274.526 49.9679L278.292 42.1816L266.537 16.4554C265.336 13.8253 267.321 10.8657 270.288 10.8657H271.463C273.168 10.8657 274.696 11.8895 275.299 13.437L283.158 33.594L292.324 13.2508C292.977 11.802 294.453 10.8657 296.083 10.8657H296.745C299.751 10.8657 301.736 13.897 300.458 16.5349Z" fill="white"/>
<path fill-rule="evenodd" clip-rule="evenodd" d="M260.331 4.14149V38.6997C260.331 40.8882 258.537 42.6625 256.322 42.6625C254.108 42.6625 252.26 40.8882 252.26 38.6997V4.14149C252.26 2.08504 254.216 0.417908 256.297 0.417908C258.377 0.417908 260.331 2.08504 260.331 4.14149Z" fill="white"/>
<path d="M240.931 42.6263C243.21 42.6169 245.049 40.6732 245.04 38.3921L244.99 25.6877C244.953 16.3634 239.766 10.8274 230.155 10.8659C225.762 10.8846 222.221 12.1615 219.219 16.5827C216.217 12.1615 212.413 10.8846 208.019 10.8659C198.409 10.8274 193.544 16.3634 193.507 25.6877L193.457 38.3921C193.448 40.6732 195.287 42.6175 197.566 42.6269C199.845 42.6363 201.823 40.6732 201.832 38.3921L201.883 25.6877C201.9 21.5935 203.487 17.7288 208.019 17.7475C212.549 17.7678 215.629 21.5941 215.612 25.6877L215.562 38.3921C215.553 40.6732 217.393 42.6175 219.672 42.6269C221.951 42.6175 222.944 40.6689 222.935 38.3878L222.885 25.6877C222.868 21.5941 225.626 17.7678 230.155 17.7475C234.688 17.7288 236.597 21.5935 236.614 25.6877L236.665 38.3921C236.673 40.6732 238.649 42.6362 240.928 42.6269L240.931 42.6263Z" fill="white"/>
<path fill-rule="evenodd" clip-rule="evenodd" d="M174.787 15.099L174.816 15.2592C177.438 11.4302 180.957 10.8657 184.408 10.8657C186.05 10.8657 187.662 11.1389 189.104 11.6025C191.435 12.3525 192.463 15.059 191.256 17.174C190.334 18.7903 188.386 19.5244 186.612 18.9308C185.683 18.6197 184.628 18.4606 183.304 18.4606C178.887 18.4606 174.816 20.5948 174.816 26.3068V38.5109C174.816 40.784 172.958 42.6269 170.667 42.6269H170.544C168.253 42.6269 166.396 40.784 166.396 38.5109V15.7975C166.396 13.5244 168.253 11.6815 170.544 11.6815H170.699C172.719 11.6815 174.444 13.1244 174.787 15.099Z" fill="white"/>
<path fill-rule="evenodd" clip-rule="evenodd" d="M131.561 26.624C131.561 32.3656 135.978 35.7861 141.484 35.7861C154.534 35.7861 154.534 17.5239 141.484 17.5239C135.978 17.5239 131.561 20.8829 131.561 26.624ZM155.511 11.5992H155.545C157.802 11.5992 159.631 13.3924 159.631 15.6041V37.7053C159.631 39.917 157.802 41.7103 155.545 41.7103C153.432 41.7103 151.669 40.1306 151.477 38.0678L151.407 37.3129C149.504 40.855 144.271 42.5655 140.532 42.6264C130.609 42.6877 123.268 37.1906 123.268 26.624C123.268 16.241 130.949 10.8053 140.736 10.8662C145.222 10.8662 149.504 12.7598 151.407 15.7526L151.433 15.3479C151.572 13.2397 153.356 11.5992 155.511 11.5992Z" fill="white"/>
<path fill-rule="evenodd" clip-rule="evenodd" d="M105.867 42.5556C104.226 42.5556 101.736 41.5667 101.129 40.0591L92.4661 18.5596C92.0829 17.6088 90.7195 17.613 90.3427 18.566L81.853 40.0353C81.2523 41.5551 78.6998 42.5556 77.0488 42.5556C75.4102 42.5556 72.986 41.5699 72.3767 40.066L58.4457 5.68741C57.3908 3.0837 59.9681 0.250732 62.8053 0.250732C64.5009 0.250732 66.4951 1.30511 67.0643 2.88349L77.121 30.7705L87.4957 2.84757C88.0756 1.28767 89.658 0.250732 91.3393 0.250732C93.0063 0.250732 94.5873 1.27077 95.1768 2.81271L105.87 30.7705L115.61 2.91941C116.168 1.32254 118.177 0.250732 119.886 0.250732C122.712 0.250732 125.298 3.06257 124.265 5.66258L110.605 40.0411C110.002 41.5583 107.516 42.5556 105.867 42.5556Z" fill="url(#paint0_linear)"/>
<path fill-rule="evenodd" clip-rule="evenodd" d="M28.1501 5.56546L19.7897 39.0971C19.2603 41.2206 17.0896 42.5081 14.9411 41.9724L14.8904 41.9598C12.7414 41.424 11.4293 39.2681 11.9587 37.1446L20.3191 3.61298C20.8166 1.61761 23.1256 0.47513 25.1444 0.978473C27.1631 1.48182 28.6476 3.5701 28.1501 5.56546Z" fill="#1451DC"/>
<path fill-rule="evenodd" clip-rule="evenodd" d="M45.1 24.1393L11.8167 14.8395C9.70894 14.2505 8.48299 12.0445 9.07886 9.91197L9.09294 9.86157C9.68894 7.72853 11.8808 6.47751 13.9886 7.06645L47.2719 16.3663C49.2525 16.9197 50.3296 19.2599 49.7697 21.2637C49.2098 23.2676 47.0806 24.6927 45.1 24.1393Z" fill="#1451DC"/>
<path fill-rule="evenodd" clip-rule="evenodd" d="M42.1 38.1393L8.81672 28.8395C6.70894 28.2505 5.48299 26.0445 6.07886 23.912L6.09294 23.8616C6.68894 21.7285 8.88083 20.4775 10.9886 21.0665L44.2719 30.3663C46.2525 30.9197 47.3296 33.2599 46.7697 35.2637C46.2098 37.2676 44.0806 38.6927 42.1 38.1393Z" fill="#1451DC"/>
<path fill-rule="evenodd" clip-rule="evenodd" d="M43.0708 9.57016L34.7104 43.1018C34.181 45.2253 32.0104 46.5128 29.8619 45.9771L29.8111 45.9645C27.6621 45.4287 26.35 43.2728 26.8794 41.1493L35.2398 7.61768C35.7373 5.62231 38.0463 4.47983 40.0651 4.98317C42.0839 5.48652 43.5683 7.5748 43.0708 9.57016Z" fill="#1451DC"/>
<defs>
<linearGradient id="paint0_linear" x1="58.2044" y1="42.5556" x2="124.497" y2="42.5556" gradientUnits="userSpaceOnUse">
<stop stop-color="#005BD7"/>
<stop offset="1" stop-color="#AA00FF"/>
<stop offset="1" stop-color="#AA00FF"/>
</linearGradient>
</defs>
</svg>
