<svg width="136" height="30" viewBox="0 0 136 30" fill="none" xmlns="http://www.w3.org/2000/svg">
<path fill-rule="evenodd" clip-rule="evenodd" d="M133.732 29.4146C132.829 30.3633 130.903 30.0068 130.253 29.4146C129.604 28.8224 131.211 25.1808 131.211 25.1808C129.799 24.967 128.842 24.1973 128.842 22.8715C128.842 18.9375 136 19.1083 136 22.9997C136 23.5129 134.634 28.4659 133.732 29.4146Z" fill="#6938EF"/>
<path fill-rule="evenodd" clip-rule="evenodd" d="M130.408 8.14023L120.224 28.652C119.816 29.4745 118.941 30 117.98 30H117.929C116.114 30 114.914 28.214 115.685 26.6588L117.823 22.346L111.15 8.09615C110.467 6.63937 111.595 5 113.279 5H113.946C114.914 5 115.781 5.56711 116.124 6.42429L120.586 17.5893L125.79 6.32113C126.16 5.51866 126.998 5 127.924 5H128.3C130.006 5 131.133 6.67907 130.408 8.14023Z" fill="#6938EF"/>
<path fill-rule="evenodd" clip-rule="evenodd" d="M109.158 2.05667V21.1444C109.158 22.3532 107.964 23.3333 106.491 23.3333H106.456C104.983 23.3333 103.789 22.3532 103.789 21.1444V2.05667C103.789 0.920821 105.095 0 106.479 0C107.863 0 109.158 0.920821 109.158 2.05667Z" fill="#6938EF"/>
<path d="M99.7197 23.333C100.985 23.3276 102.006 22.2056 102.001 20.8889L101.973 13.5556C101.952 8.17341 99.0732 4.97787 93.7389 5.00012C91.3001 5.01092 89.3349 5.74794 87.6685 8.3C86.0022 5.74794 83.8911 5.01092 81.4523 5.00012C76.118 4.97787 73.4177 8.17341 73.397 13.5556L73.3692 20.8889C73.3643 22.2056 74.3853 23.3279 75.6501 23.3334C76.915 23.3388 78.0132 22.2056 78.0181 20.8889L78.0462 13.5556C78.0557 11.1923 78.9366 8.96151 81.4523 8.97232C83.9662 8.98408 85.6758 11.1927 85.6663 13.5556L85.6389 20.8889C85.6337 22.2056 86.6552 23.3279 87.9201 23.3334C89.185 23.3279 89.7362 22.2031 89.731 20.8864L89.7036 13.5556C89.6941 11.1927 91.225 8.98408 93.7389 8.97232C96.2546 8.96151 97.3142 11.1923 97.3237 13.5556L97.3518 20.8889C97.3567 22.2056 98.4534 23.3387 99.7183 23.3333L99.7197 23.333Z" fill="#6938EF"/>
<path fill-rule="evenodd" clip-rule="evenodd" d="M63.196 7.4436L63.21 7.53607C64.5049 5.32588 66.2426 5 67.9463 5C68.7571 5 69.5532 5.15771 70.2653 5.42532C71.416 5.85824 71.9236 7.42048 71.3279 8.64133C70.8725 9.5743 69.9106 9.99804 69.0348 9.65538C68.5758 9.47581 68.0552 9.38397 67.4011 9.38397C65.2202 9.38397 63.21 10.6159 63.21 13.913V20.9575C63.21 22.2696 62.2929 23.3333 61.1618 23.3333H61.1009C59.9698 23.3333 59.0527 22.2696 59.0527 20.9575V7.84675C59.0527 6.53469 59.9698 5.47092 61.1009 5.47092H61.1776C62.1747 5.47092 63.0268 6.30382 63.196 7.4436Z" fill="#6938EF"/>
<path fill-rule="evenodd" clip-rule="evenodd" d="M40.2779 14.0961C40.2779 17.4103 42.6693 19.3846 45.6497 19.3846C52.714 19.3846 52.714 8.84329 45.6497 8.84329C42.6693 8.84329 40.2779 10.7822 40.2779 14.0961ZM53.2428 5.42339H53.2617C54.4833 5.42339 55.4733 6.45848 55.4733 7.73516V20.4925C55.4733 21.7691 54.4833 22.8042 53.2617 22.8042C52.1179 22.8042 51.163 21.8924 51.0593 20.7017L51.0215 20.266C49.9912 22.3106 47.1582 23.2979 45.1344 23.333C39.7626 23.3685 35.7891 20.1954 35.7891 14.0961C35.7891 8.10279 39.9466 4.96516 45.245 5.00029C47.6732 5.00029 49.9912 6.09332 51.0215 7.82083L51.0357 7.58725C51.1106 6.37035 52.0763 5.42339 53.2428 5.42339Z" fill="#6938EF"/>
<path fill-rule="evenodd" clip-rule="evenodd" d="M25.7318 23.3333C24.8457 23.3333 23.5016 22.7879 23.1738 21.9564L18.497 10.0983C18.2901 9.57386 17.554 9.57619 17.3506 10.1018L12.7673 21.9432C12.4429 22.7815 11.0649 23.3333 10.1736 23.3333C9.28897 23.3333 7.98019 22.7896 7.65127 21.9601L0.130282 2.9986C-0.439226 1.56253 0.95216 0 2.48393 0C3.3993 0 4.47595 0.58154 4.78324 1.4521L10.2126 16.8332L15.8136 1.43229C16.1267 0.571926 16.9809 0 17.8887 0C18.7886 0 19.6422 0.562602 19.9604 1.41306L25.7334 16.8332L30.9916 1.47191C31.2932 0.591155 32.3775 0 33.3002 0C34.8257 0 36.2219 1.55087 35.6642 2.98491L28.2895 21.9464C27.9641 22.7832 26.622 23.3333 25.7318 23.3333Z" fill="#6938EF"/>
</svg>
